<svg width="24" height="24" viewBox="0 0 24 24" fill="none" xmlns="http://www.w3.org/2000/svg">
<path d="M13.75 18.4167L11.4167 20.75C9.16153 23.0052 5.50519 23.0052 3.25003 20.75C0.994864 18.4948 0.994864 14.8385 3.25003 12.5833L5.58336 10.25C7.83853 7.99483 11.4949 7.99483 13.75 10.25C14.1074 10.6074 14.4082 11 14.6523 11.4167M10.25 5.58333L12.5834 3.24999C14.8385 0.994832 18.4949 0.994835 20.75 3.25C23.0052 5.50516 23.0052 9.1615 20.75 11.4167L18.4167 13.75C16.1615 16.0052 12.5052 16.0052 10.25 13.75C9.89262 13.3926 9.59185 13 9.34772 12.5833" stroke="black" stroke-width="2" stroke-linecap="round" stroke-linejoin="round"/>
</svg>
