<svg width="44" height="44" viewBox="0 0 44 44" fill="none" xmlns="http://www.w3.org/2000/svg">
<path d="M22.0004 43.7429C33.9297 43.7429 43.6004 34.0723 43.6004 22.1429C43.6004 10.2136 33.9297 0.542969 22.0004 0.542969C10.071 0.542969 0.400391 10.2136 0.400391 22.1429C0.400391 34.0723 10.071 43.7429 22.0004 43.7429Z" fill="#00D95A"/>
<path d="M28.8572 28.9941C28.5452 29.4635 27.997 29.62 27.5276 29.3071C23.8527 27.0391 19.2385 26.5696 13.7641 27.8205C13.2164 27.977 12.747 27.5858 12.591 27.1168C12.435 26.5696 12.8252 26.1002 13.2946 25.9442C19.239 24.6151 24.4004 25.1623 28.4665 27.6645C29.0142 27.8992 29.0919 28.5251 28.8572 28.9941ZM30.7345 24.6928C30.3433 25.24 29.6396 25.4752 29.0919 25.0835C24.8689 22.5031 18.4561 21.7211 13.5294 23.285C12.9039 23.4415 12.1998 23.1285 12.0433 22.5031C11.8873 21.8776 12.1998 21.1735 12.8252 21.0175C18.5343 19.2971 25.5735 20.1573 30.4215 23.129C30.891 23.3632 31.1252 24.1456 30.7345 24.6928ZM32.9247 19.9226C32.534 20.4703 31.5946 20.7045 30.8914 20.3138C25.886 17.3416 17.5186 17.0287 12.7474 18.5147C11.9655 18.7495 11.1836 18.2805 10.9489 17.5763C10.7146 16.7944 11.1836 16.012 11.8878 15.7773C17.4399 14.1352 26.5906 14.4477 32.377 17.8888C33.0807 18.2805 33.3159 19.2184 32.9247 19.9226Z" fill="white"/>
</svg>
